{
  "asset": {
    "generator": "Royal examples MSFT_lod fixture",
    "version": "2.0"
  },
  "extensionsUsed": [
    "MSFT_lod"
  ],
  "buffers": [
    {
      "byteLength": 450,
      "uri": "msft-lod.bin"
    }
  ],
  "bufferViews": [
    {
      "buffer": 0,
      "byteLength": 108,
      "byteOffset": 0,
      "target": 34962
    },
    {
      "buffer": 0,
      "byteLength": 108,
      "byteOffset": 108,
      "target": 34962
    },
    {
      "buffer": 0,
      "byteLength": 48,
      "byteOffset": 216,
      "target": 34963
    },
    {
      "buffer": 0,
      "byteLength": 48,
      "byteOffset": 264,
      "target": 34962
    },
    {
      "buffer": 0,
      "byteLength": 48,
      "byteOffset": 312,
      "target": 34962
    },
    {
      "buffer": 0,
      "byteLength": 12,
      "byteOffset": 360,
      "target": 34963
    },
    {
      "buffer": 0,
      "byteLength": 36,
      "byteOffset": 372,
      "target": 34962
    },
    {
      "buffer": 0,
      "byteLength": 36,
      "byteOffset": 408,
      "target": 34962
    },
    {
      "buffer": 0,
      "byteLength": 6,
      "byteOffset": 444,
      "target": 34963
    }
  ],
  "accessors": [
    {
      "bufferView": 0,
      "componentType": 5126,
      "count": 9,
      "max": [1, 1, 0],
      "min": [-1, -1, 0],
      "type": "VEC3"
    },
    {
      "bufferView": 1,
      "componentType": 5126,
      "count": 9,
      "type": "VEC3"
    },
    {
      "bufferView": 2,
      "componentType": 5123,
      "count": 24,
      "type": "SCALAR"
    },
    {
      "bufferView": 3,
      "componentType": 5126,
      "count": 4,
      "max": [1, 1, 0],
      "min": [-1, -1, 0],
      "type": "VEC3"
    },
    {
      "bufferView": 4,
      "componentType": 5126,
      "count": 4,
      "type": "VEC3"
    },
    {
      "bufferView": 5,
      "componentType": 5123,
      "count": 6,
      "type": "SCALAR"
    },
    {
      "bufferView": 6,
      "componentType": 5126,
      "count": 3,
      "max": [1, 1, 0],
      "min": [-1, -1, 0],
      "type": "VEC3"
    },
    {
      "bufferView": 7,
      "componentType": 5126,
      "count": 3,
      "type": "VEC3"
    },
    {
      "bufferView": 8,
      "componentType": 5123,
      "count": 3,
      "type": "SCALAR"
    }
  ],
  "materials": [
    {
      "name": "LOD0 high",
      "pbrMetallicRoughness": {
        "baseColorFactor": [0.08, 0.74, 0.67, 1]
      }
    },
    {
      "name": "LOD1 medium",
      "pbrMetallicRoughness": {
        "baseColorFactor": [0.95, 0.58, 0.15, 1]
      }
    },
    {
      "name": "LOD2 low",
      "pbrMetallicRoughness": {
        "baseColorFactor": [0.4, 0.52, 1, 1]
      }
    }
  ],
  "meshes": [
    {
      "name": "LOD0 tessellated plane",
      "primitives": [
        {
          "attributes": {
            "POSITION": 0,
            "NORMAL": 1
          },
          "indices": 2,
          "material": 0,
          "mode": 4
        }
      ]
    },
    {
      "name": "LOD1 quad",
      "primitives": [
        {
          "attributes": {
            "POSITION": 3,
            "NORMAL": 4
          },
          "indices": 5,
          "material": 1,
          "mode": 4
        }
      ]
    },
    {
      "name": "LOD2 triangle",
      "primitives": [
        {
          "attributes": {
            "POSITION": 6,
            "NORMAL": 7
          },
          "indices": 8,
          "material": 2,
          "mode": 4
        }
      ]
    }
  ],
  "nodes": [
    {
      "extensions": {
        "MSFT_lod": {
          "ids": [1, 2]
        }
      },
      "extras": {
        "MSFT_screencoverage": [0.035, 0.009, 0]
      },
      "mesh": 0,
      "name": "MSFT_lod root"
    },
    {
      "mesh": 1,
      "name": "MSFT_lod medium"
    },
    {
      "mesh": 2,
      "name": "MSFT_lod low"
    }
  ],
  "scene": 0,
  "scenes": [
    {
      "nodes": [0, 1, 2]
    }
  ]
}
