{
  "asset": {
    "generator": "Royal examples generated AutoLod fixture",
    "version": "2.0"
  },
  "buffers": [
    {
      "byteLength": 1608,
      "uri": "generated-mesh-lod.bin"
    }
  ],
  "bufferViews": [
    {
      "buffer": 0,
      "byteLength": 588,
      "byteOffset": 0,
      "target": 34962
    },
    {
      "buffer": 0,
      "byteLength": 588,
      "byteOffset": 588,
      "target": 34962
    },
    {
      "buffer": 0,
      "byteLength": 432,
      "byteOffset": 1176,
      "target": 34963
    }
  ],
  "accessors": [
    {
      "bufferView": 0,
      "componentType": 5126,
      "count": 49,
      "max": [1, 1, 0.08],
      "min": [-1, -1, 0],
      "type": "VEC3"
    },
    {
      "bufferView": 1,
      "componentType": 5126,
      "count": 49,
      "type": "VEC3"
    },
    {
      "bufferView": 2,
      "componentType": 5123,
      "count": 216,
      "type": "SCALAR"
    }
  ],
  "materials": [
    {
      "name": "Generated AutoLod surface",
      "pbrMetallicRoughness": {
        "baseColorFactor": [0.1, 0.72, 0.62, 1]
      }
    }
  ],
  "meshes": [
    {
      "name": "Eligible indexed grid",
      "primitives": [
        {
          "attributes": {
            "POSITION": 0,
            "NORMAL": 1
          },
          "indices": 2,
          "material": 0,
          "mode": 4
        }
      ]
    }
  ],
  "nodes": [
    {
      "mesh": 0,
      "name": "Generated AutoLod eligible mesh"
    }
  ],
  "scene": 0,
  "scenes": [
    {
      "nodes": [0]
    }
  ]
}
