{
  "asset": {
    "generator": "Royal EXT_mesh_gpu_instancing cube fixture",
    "version": "2.0"
  },
  "extensionsRequired": [
    "EXT_mesh_gpu_instancing"
  ],
  "extensionsUsed": [
    "EXT_mesh_gpu_instancing"
  ],
  "buffers": [
    {
      "byteLength": 648,
      "uri": "data:application/octet-stream;base64,"
    },
    {
      "byteLength": 1500,
      "uri": "data:application/octet-stream;base64,"
    }
  ],
  "bufferViews": [
    {
      "buffer": 0,
      "byteLength": 288,
      "byteOffset": 0,
      "target": 34962
    },
    {
      "buffer": 0,
      "byteLength": 288,
      "byteOffset": 288,
      "target": 34962
    },
    {
      "buffer": 0,
      "byteLength": 72,
      "byteOffset": 576,
      "target": 34963
    },
    {
      "buffer": 1,
      "byteLength": 1500,
      "byteOffset": 0,
      "target": 34962
    }
  ],
  "accessors": [
    {
      "bufferView": 0,
      "componentType": 5126,
      "count": 24,
      "max": [
        0.5,
        0.5,
        0.5
      ],
      "min": [
        -0.5,
        -0.5,
        -0.5
      ],
      "type": "VEC3"
    },
    {
      "bufferView": 1,
      "componentType": 5126,
      "count": 24,
      "type": "VEC3"
    },
    {
      "bufferView": 2,
      "componentType": 5123,
      "count": 36,
      "type": "SCALAR"
    },
    {
      "bufferView": 3,
      "componentType": 5126,
      "count": 125,
      "type": "VEC3"
    }
  ],
  "materials": [
    {
      "name": "EXT mesh GPU instancing cube",
      "pbrMetallicRoughness": {
        "baseColorFactor": [
          0.95,
          0.72,
          0.2,
          1
        ],
        "metallicFactor": 0,
        "roughnessFactor": 0.58
      }
    }
  ],
  "meshes": [
    {
      "name": "ext-mesh-gpu-instancing-cube-mesh",
      "primitives": [
        {
          "attributes": {
            "NORMAL": 1,
            "POSITION": 0
          },
          "indices": 2,
          "material": 0,
          "mode": 4
        }
      ]
    }
  ],
  "nodes": [
    {
      "extensions": {
        "EXT_mesh_gpu_instancing": {
          "attributes": {
            "TRANSLATION": 3
          }
        }
      },
      "mesh": 0,
      "name": "ext-mesh-gpu-instancing-cube"
    }
  ],
  "scene": 0,
  "scenes": [
    {
      "nodes": [
        0
      ]
    }
  ]
}
