{
  "accessors": [
    { "bufferView": 0, "componentType": 5126, "count": 64, "max": [0.105, 0.1078672032193159, 0], "min": [-0.105, -0.1078672032193159, 0], "type": "VEC3" },
    { "bufferView": 1, "componentType": 5126, "count": 64, "type": "VEC2" },
    { "bufferView": 2, "componentType": 5123, "count": 186, "type": "SCALAR" }
  ],
  "asset": {
    "copyright": "Copyright Ghostscript authors; Ghostscript Tiger.svg, derived from GPL Ghostscript tiger.eps; AGPL-3.0-or-later.",
    "extras": {
      "attribution": {
        "author": "Ghostscript authors",
        "license": "AGPL-3.0-or-later",
        "originalSource": "GPL Ghostscript tiger.eps",
        "source": "https://commons.wikimedia.org/wiki/File:Ghostscript_Tiger.svg",
        "title": "Ghostscript Tiger.svg"
      }
    },
    "generator": "Royal Ghostscript tiger SVG texture card fixture",
    "version": "2.0"
  },
  "buffers": [{ "byteLength": 1652, "uri": "ghostscript-tiger-card.bin" }],
  "bufferViews": [
    { "buffer": 0, "byteLength": 768, "byteOffset": 0, "target": 34962 },
    { "buffer": 0, "byteLength": 512, "byteOffset": 768, "target": 34962 },
    { "buffer": 0, "byteLength": 372, "byteOffset": 1280, "target": 34963 }
  ],
  "extensionsUsed": ["KHR_materials_unlit"],
  "images": [{ "mimeType": "image/svg+xml", "name": "Ghostscript tiger parchment SVG wrapper", "uri": "ghostscript-tiger-card.svg" }],
  "materials": [{
    "doubleSided": true,
    "extensions": { "KHR_materials_unlit": {} },
    "name": "Ghostscript tiger SVG card",
    "pbrMetallicRoughness": { "baseColorTexture": { "index": 0 }, "metallicFactor": 0, "roughnessFactor": 1 }
  }],
  "meshes": [{
    "name": "a4-scale tiger silhouette cut-card",
    "primitives": [{ "attributes": { "POSITION": 0, "TEXCOORD_0": 1 }, "indices": 2, "material": 0, "mode": 4 }]
  }],
  "nodes": [{ "mesh": 0, "name": "Ghostscript tiger A4 silhouette cut-card" }],
  "samplers": [{ "magFilter": 9729, "minFilter": 9987, "wrapS": 33071, "wrapT": 33071 }],
  "scene": 0,
  "scenes": [{ "nodes": [0] }],
  "textures": [{ "sampler": 0, "source": 0 }]
}
