{
  "asset": {
    "generator": "Royal temporary four-step LOD cube generator",
    "version": "2.0"
  },
  "extensionsUsed": [
    "MSFT_lod"
  ],
  "buffers": [
    {
      "byteLength": 648,
      "uri": "data:application/octet-stream;base64,"
    }
  ],
  "bufferViews": [
    {
      "buffer": 0,
      "byteLength": 288,
      "byteOffset": 0,
      "target": 34962
    },
    {
      "buffer": 0,
      "byteLength": 288,
      "byteOffset": 288,
      "target": 34962
    },
    {
      "buffer": 0,
      "byteLength": 72,
      "byteOffset": 576,
      "target": 34963
    }
  ],
  "accessors": [
    {
      "bufferView": 0,
      "componentType": 5126,
      "count": 24,
      "max": [
        0.5,
        0.5,
        0.5
      ],
      "min": [
        -0.5,
        -0.5,
        -0.5
      ],
      "type": "VEC3"
    },
    {
      "bufferView": 1,
      "componentType": 5126,
      "count": 24,
      "type": "VEC3"
    },
    {
      "bufferView": 2,
      "componentType": 5123,
      "count": 36,
      "type": "SCALAR"
    }
  ],
  "materials": [
    {
      "name": "LOD0 red",
      "extensions": {
        "MSFT_lod": {
          "ids": [
            1,
            2,
            3
          ]
        }
      },
      "extras": {
        "MSFT_screencoverage": [
          0.22,
          0.08,
          0.025,
          0
        ]
      },
      "pbrMetallicRoughness": {
        "baseColorFactor": [
          0.95,
          0.16,
          0.1,
          1
        ],
        "metallicFactor": 0,
        "roughnessFactor": 0.62
      }
    },
    {
      "name": "LOD1 amber",
      "pbrMetallicRoughness": {
        "baseColorFactor": [
          0.98,
          0.68,
          0.12,
          1
        ],
        "metallicFactor": 0,
        "roughnessFactor": 0.62
      }
    },
    {
      "name": "LOD2 blue",
      "pbrMetallicRoughness": {
        "baseColorFactor": [
          0.18,
          0.52,
          0.94,
          1
        ],
        "metallicFactor": 0,
        "roughnessFactor": 0.62
      }
    },
    {
      "name": "LOD3 graphite",
      "pbrMetallicRoughness": {
        "baseColorFactor": [
          0.32,
          0.36,
          0.39,
          1
        ],
        "metallicFactor": 0,
        "roughnessFactor": 0.72
      }
    }
  ],
  "meshes": [
    {
      "name": "four-step-color-lod-cube-mesh",
      "primitives": [
        {
          "attributes": {
            "NORMAL": 1,
            "POSITION": 0
          },
          "indices": 2,
          "material": 0,
          "mode": 4
        }
      ]
    }
  ],
  "nodes": [
    {
      "mesh": 0,
      "name": "four-step-color-lod-cube"
    }
  ],
  "scene": 0,
  "scenes": [
    {
      "nodes": [
        0
      ]
    }
  ]
}
